<svg width="200" height="200" viewBox="0 0 80 80" xmlns="http://www.w3.org/2000/svg">
  <!-- Suitcase body -->
  <rect x="16" y="28" width="48" height="38" rx="6" fill="#1DB88E"/>
  <rect x="16" y="44" width="48" height="5" fill="#0f9470"/>
  <!-- Handle -->
  <path d="M30 28 L30 20 Q40 14 50 20 L50 28" fill="none" stroke="#0f9470" stroke-width="4" stroke-linecap="round"/>
  <!-- Lock -->
  <rect x="35" y="40" width="10" height="12" rx="3" fill="#0a6b52"/>
  <rect x="37" y="37" width="6" height="5" rx="3" fill="none" stroke="#0a6b52" stroke-width="2.5"/>
  <!-- Wheels -->
  <circle cx="26" cy="68" r="4" fill="#0a6b52"/>
  <circle cx="54" cy="68" r="4" fill="#0a6b52"/>
  <!-- Plane -->
  <g transform="translate(52,14) rotate(-30)">
    <path d="M0,0 L12,4 L0,8 L2,4 Z" fill="#ffffff" opacity="0.9"/>
    <path d="M4,1 L10,-3 L11,1 L4,3 Z" fill="#ffffff" opacity="0.7"/>
    <path d="M2,6 L8,9 L8,7 L2,5 Z" fill="#ffffff" opacity="0.7"/>
  </g>
</svg>
