<?xml version="1.0" encoding="UTF-8"?>
<svg id="Layer_1" data-name="Layer 1" xmlns="http://www.w3.org/2000/svg" viewBox="0 0 1240.03 341.28">
  <defs>
    <style>
      .cls-1 {
        fill: #0d6e64;
      }
    </style>
  </defs>
  <path class="cls-1" d="M1223.5,151.15v26H511.5l1,158h-33.5l-.49-158.01-246.01,1.01v-27h203v-74c-4.36,1.96-28.25,14.69-29.49,17-2.35,4.38,13.38,23.06,7.04,24.73l-67.83.06c-3.63-.93-8.66-10.36-12.18-13.82-26.14-25.66-73.22-25.63-99.16.4-22.56,22.63-15.46,36.39-51.18,52.35-2.6,1.16-5.04-1.48-4.18,3.26,22.92,4.68,37.53,21.58,46.18,42.34,17.06,40.96-16.64,77.84-52.9,90.64-52.68,5.76-106.24,3.73-159.28,3.04V30.15c41.49,1.95,85.33-2.59,126.55-.05,26.56,1.64,45.38,9.37,65.13,26.9,59.24-49.34,154.29-33.64,196.8,29.9,4.29.56,65.15-41.76,71.87-47.94,11.07-10.19,5.34-5.98,6.74-18.21s17.59-16.94,26.4-8.58c7.64,7.25,2.27,14.68,5.52,19.48,1.53,2.26,30.57,19.03,35.32,21.68,110.53,61.66,238.26,89.54,364.13,97.87l312.54-.04ZM523.5,151.15V51.65c0-1.05-11.66-9.19-14-9.5v107.5c0,2.5,11.66,1.21,14,1.5ZM464.5,151.15h14.5c.27,0,.99-1.17,1.5-1.5V46.65c0-.38-.89-1.27-1.98-1.02-.87.2-14.02,10.12-14.02,11.02v94.5ZM529.5,151.15h16.5l1.55-3.45-.05-82.05c-.91-3.67-14.49-8.61-18-11.5v97ZM458.5,64.15c-2.61-.72-15.59,7.33-16.01,8.73l-.99,77.27h17v-86ZM570.5,151.15v-74.5c0-1.02-15.52-8.81-18-9.5v84h18ZM594.5,87.15l-18-8v70.5l1.5,1.5h16.5v-64ZM77.5,139.15h53.5c23.4,0,36.28-31.51,19.54-48.54-15.18-15.45-50.78-4.82-70.51-9.5-.83-.04-2.53.99-2.53,1.54v56.5ZM618.5,97.15l-18-7v59.5c1.55,2.81,18,1.42,18,.5v-53ZM623.5,100.15v49.5l1.5,1.5h16l1.5-1.5v-42c0-1.6-17.68-8.88-19-7.5ZM647.5,109.15v40.5l1.5,1.5h16c.55,0,1.58-1.7,1.54-2.53-2.93-5.88.75-31.25-1.18-34.33-.49-.79-15.52-4.73-17.86-5.14ZM671.5,116.15v35h18c-1.37-5.36,2.31-25.56-.22-28.77-.84-1.06-15.18-5.29-17.78-6.23ZM695.5,151.15h17.5l1.5-1.5v-20c0-1.2-16.38-6.25-19-5.5v27ZM737.5,134.15l-18-3c.91,6.34-1.55,14.62.5,20h17.5v-17ZM743.5,151.15h17.5c1.98,0,2.42-8.66.06-11.06-1.97-2.01-14.12-3.59-17.56-3.94v15ZM768,152.15c1.76.65,13.79,0,17,0,1.67,0,2.45-7.12.55-8.56-.77-.58-18.38-3.13-19.06-2.45.33,2.39-1.1,10.04,1.5,11ZM791.5,152.15c1.47,1.28,34.04-.97,39,0l-39.49-7.01c-.67.24.22,6.78.49,7.01ZM129,183.15c-16.41-1.48-34.87,1.1-51.5,0v62h58.5c11.14,0,23.71-9.43,26.82-20.18,7.33-25.4-10.33-39.7-33.82-41.82Z"/>
  <path class="cls-1" d="M414.5,208.15c-26.57,82.41-124.64,114.35-199,72.98,13.34-14.97,25.43-32.13,27.01-52.98,5.47,3.37,10.58,7.41,16.6,9.89,29.93,12.33,69.56-.01,84.89-29.89h70.5Z"/>
</svg>