<?xml version="1.0" encoding="UTF-8"?>
<svg id="Layer_1" data-name="Layer 1" xmlns="http://www.w3.org/2000/svg" viewBox="0 0 1196.43 566.81">
  <defs>
    <style>
      .cls-1 {
        stroke: #0e5c5a;
        stroke-miterlimit: 10;
        stroke-width: .5px;
      }

      .cls-1, .cls-2 {
        fill: #0e5c5a;
      }
    </style>
  </defs>
  <g>
    <path class="cls-2" d="M26.22,366.22c1.22-2.83,44.65-1.15,51.48-1.52,101.4-5.47,218.2-33.91,306.19-84.81,3.88-2.24,26.77-15.33,27.92-17.08,3.97-6-2.56-20.03,12.92-20.17s9.29,13.21,11.73,18.85,65.41,37.03,75.09,41.4c8.47,3.82,53.43,23.35,59.22,22.9,1.48-.12,1.76-.02,2.95-1.07,1.1-.97,10.29-20.29,14.54-25.46,45.15-55.04,151.45-43.07,168.97,31.45-11.9-1.21-33.65-1.35-46.29.79-1.54.26-11.47-13.85-15.25-16.75-26.37-20.29-70.02-8.77-78.55,24.39,49.51,14.34,101.16,19.94,152.43,24.66,10-52.51,70.52-80.05,110.65-39.08v-15.5c0-.27,1.17-.99,1.5-1.5h31l1.5,1.5v54.5h27v-56h31.5l1.5,1.5v20.5c6.4-8.68,19.85-23,31.5-23h17l-.5,32h-19.5c-9.2,0-26.16,15.95-25.5,26h49.5c9.5-46.07,52.41-71.11,97.48-55.48,23.2,8.04,44.02,36.36,44.02,60.98v18.5c-.96-.29-2.15,1-2.5,1h-104.5c3.37,26.38,31.26,41.19,55.04,28.54,6.31-3.36,12.69-14.03,13.63-14.37,6.17-2.28,25.49,2.97,33.34.83-21.67,71.74-132.54,54.77-137.5-20h-50.5v62h-34v-62h-27c-3.41,4.73,1.65,63-1.5,63h-30c-.13,0-2.5-.87-2.5-1v-17l-17.69,13.81c-44.97,21.57-88.97-12.54-93.81-58.81h-154.5c5.98,37.01,57.34,53.47,84.55,29.05,2.28-2.04,10.89-15.05,11.95-15.05h46.5c-21.44,79.23-135.34,87.95-176,19.5-6.41-10.8-9.61-22.12-14.5-33.5h-129l-.5,143.92h-23.5l-2-143.92H27.72l-1.5-1.5v-17ZM413.22,270.72c-2.41-1.06-12,7.75-12,8.5v83c0,2.22,12,2.22,12,0v-91.5ZM448.22,363.72v-85.5c0-.71-9.69-7.97-12-7.5v91.5c0,2.4,10.27,1.3,12,1.5ZM396.22,281.72c-2.62-.28-15,7.37-15,8.5v73.5h15v-82ZM468.22,363.72v-73.5c0-1.4-12.45-8.41-15-8.5v80.5c0,2.58,12.99,1.16,15,1.5ZM376.22,292.72c-2.27-.13-15,6.66-15,7.5v63.5h15v-71ZM488.22,363.72c-.13-11.31,4.23-58.18-1.6-64.9-1.79-2.06-10.25-5.76-13.4-6.1v71h15ZM356.22,302.72c-2.48,0-16,6.57-16,7.5v53.5h16v-61ZM493.22,302.72v59.5c0,1.89,14.55,2.82,15.86-.14,1.07-2.43.73-50.73-.85-52.87-.53-.72-14.29-7.33-15.01-6.49ZM336.22,311.72c-2.34.85-14.2,4.56-15,5.5-1.45,1.72-1.76,42.79-.86,44.85,1.3,2.96,15.86,2.04,15.86.14v-50.5ZM514.38,363.57c5.27-.67,13.5,3.01,14.89-3.3.61-2.74.52-39.92-.22-41.88-1.02-2.69-11.43-4.84-14.33-5.69l-.35,50.87ZM316.22,320.72c-2.35-1.3-16,4.6-16,5.5v37.5h14.5c.11,0,1.5-1.39,1.5-1.5v-41.5ZM549.22,363.72v-37.5c0-1.54-13.35-7.05-16-5.49l1.5,42.99h14.5ZM295.22,363.72v-32.5c0-.55,2.39-3.23-1.43-3.48-.9-.06-12.98,4.57-13.42,5.63-1.3,3.12-.46,25.86.36,30.36h14.5ZM554.22,327.72v36h14.5c2.17,0,2.13-28.21.85-30.79-.99-1.98-12.62-3.89-15.35-5.21ZM1132.22,363.71c-5.23-41.4-63.66-40.35-70.01-.51l70.01.51ZM275.22,333.72c-1.54,1.25-16,4.16-16,5v25h16v-30ZM590.22,338.72l-16-4v27.5c0,.11,1.39,1.5,1.5,1.5h14.5v-25ZM878.22,364.72c-3.04-25.9-34.84-36.3-55.93-24.43-5.6,3.15-18.12,18.43-14.57,24.43h70.5ZM255.22,363.72v-21.5c0-3.68-16,1.71-16,3v18.5h16ZM594.22,342.22v20c1.58,2.31,14.86,1.95,16.06,1.06,4.18-14.6-.23-24.87-16.06-21.06ZM235.22,345.72c-2.39-.79-17,3.05-17,4.5v14.5h15.5c.27,0,.99-1.17,1.5-1.5v-17.5ZM614.22,364.72h15.5c3.4,0,1.83-13.9,1.06-15.06-.48-.72-16.56-6.14-16.56-2.44v17.5ZM214.22,350.72c-5.59-.02-23.23,3.98-16.56,13.07,1.25,1.7,15.49,1.26,16.41-.22,1.01-1.64-.41-10.16.15-12.85ZM650.99,353.94c-.61-.52-15.21-3.8-15.77-3.22.34,2.02-.47,12.56,0,13.01.58.56,13.87.7,16.07.55,1.7-1.27,1.18-9.08-.3-10.34ZM177.37,357.86c-5.73,8.87,15.28,8.35,16.71,5.22,5.86-12.94-16.06-6.22-16.71-5.22ZM672.07,357.87c-.61-.93-13.41-2.47-15.78-3.11-8.89,14.92,21.83,12.4,15.78,3.11ZM173.23,358.72c-.93-.93-23.08,2.86-26.05,3.45-2.17.43-7.74.55-6.95,3.54,6.08-1.79,27.56.57,31.35-1.14,2.07-.94,2.1-5.41,1.65-5.86ZM708.22,363.74c-1.2-1.09-30.86-6.17-32-5.02-.25.25-.11,4.3.44,5.06.89,1.23,27.84,2.36,30.08,1.94,1.29-.24,3.11-.5,1.48-1.99ZM879.22,384.72h-74c1.82,49.45,71.47,48.14,74,0Z"/>
    <path class="cls-2" d="M122.22,232.72V28.72c37.38,4.5,115.3-11.65,144.02,15.48,24.27,22.92,19.22,66.49-11.02,82,41.19,13.33,47.24,71.72,12.29,95.31-15.88,10.72-32.21,11.35-50.76,12.24-31.21,1.49-63.31-.52-94.54-1.04ZM161.72,60.72l-1.5,1.5v49c0,1.33,3.15,2.29,4.45,2.55,8.12,1.59,44.78.24,54.03-1.07,37.89-5.35,27.46-51.98.02-51.98h-57ZM161.22,143.72c.29.96-1,2.15-1,2.5v53l1.5,1.5h67c27.94,0,34.09-57-7-57h-60.5Z"/>
    <path class="cls-2" d="M827.22,95.72v-16.5c0-2.16,34.91-3.82,36.56-1.56l.49,2.51c-9.72,74.2,37.92,219.02-83.58,211.58-9.33-.57-41.96-8.25-45.03-18.05-1.08-3.43,22.4-18.31,25.35-18.8,2.7-.45,11.34,4.86,15.98,5.56,34.69,5.23,52.13-16.44,49.23-49.73-6.35,4.68-10.84,11.58-17.84,15.64-37.46,21.73-87.43-.59-101.19-40.11-27.6-79.26,54.37-149.6,120.04-90.54ZM781.03,107.03c-56.83,3.85-54.9,101.57,9.66,94.66,50.77-5.44,48.72-98.62-9.66-94.66Z"/>
    <path class="cls-2" d="M674.22,13.72v219h-36v-21c-4.11.01-5.82,5.8-9.48,9.02-37.12,32.68-96.86,11.29-112.81-33.23-28.37-79.14,55.76-152,121.29-90.79V13.72h37ZM588.98,105.98c-55.47,5.05-52.54,100.12,5.74,98.81,59.3-1.34,56.19-104.44-5.74-98.81Z"/>
    <path class="cls-2" d="M932.22,167.72c1.68,32.29,41.33,47.82,66.6,29.61,4.19-3.02,8.53-12.75,11.93-13.58,2.46-.6,37.33.44,38.47,1.99-20.88,72.55-135.98,67.8-155.15-4.36-35.17-132.39,172.93-149.83,159.15-13.65h-121ZM931.22,140.72h79.5c6.2,0-4.6-18.97-6.09-20.91-21.09-27.5-70.72-14.77-73.41,20.91Z"/>
    <path class="cls-2" d="M356.22,233.72h-35.5l-1.5-1.5V77.72h36l.51,24.01c4.38-4.07,5.85-9.08,10.48-13.51,12.66-12.1,36.68-17.96,52.85-9.93l-3.8,33.02c-78.37-15.42-55.51,75.77-59.05,122.41Z"/>
    <path class="cls-2" d="M481.22,233.72h-35.5l-1.5-1.5V78.22c.82-1.5,2.11-1.24,3.45-1.55,1.52-.35,28.71-.15,31.12.16,1.6.2,2.65.98,3.17,2.51l-.74,154.38Z"/>
    <path class="cls-2" d="M478.86,51.36c-23.26,21.06-55.3-15.66-31.66-35.16s53.54,15.35,31.66,35.16Z"/>
  </g>
  <g>
    <path class="cls-1" d="M547.55,480.34h3.73v44.85h25.94l-.69,3.45h-28.98v-48.3Z"/>
    <path class="cls-1" d="M608.96,518.57c0,3.38.07,8.76.07,10.07h-3.31c-.14-.9-.21-3.17-.21-6-1.45,4.07-4.97,6.83-11.11,6.83-4.97,0-11.32-1.93-11.32-12.49v-22.84h3.38v22.01c0,5.04,1.59,9.94,8.42,9.94,7.73,0,10.63-4.35,10.63-14.21v-17.73h3.45v24.43Z"/>
    <path class="cls-1" d="M620.34,494.14c5.73,8.49,8.21,12.28,9.59,14.35h.07c1.66-2.35,5.11-7.31,10.07-14.35h3.93l-12.01,16.7,12.21,17.8h-4.14c-4.97-7.38-8.56-12.63-10.21-15.04h-.07c-1.31,2-4.42,6.69-10.07,15.04h-4l12.21-17.53-11.66-16.97h4.07Z"/>
    <path class="cls-1" d="M675.33,518.57c0,3.38.07,8.76.07,10.07h-3.31c-.14-.9-.21-3.17-.21-6-1.45,4.07-4.97,6.83-11.11,6.83-4.97,0-11.32-1.93-11.32-12.49v-22.84h3.38v22.01c0,5.04,1.59,9.94,8.42,9.94,7.73,0,10.63-4.35,10.63-14.21v-17.73h3.45v24.43Z"/>
    <path class="cls-1" d="M686.65,503.53c0-5.8-.07-8.28-.07-9.38h3.38c.07,1.1.14,3.31.14,7.73,2-5.17,6.42-8.28,12.01-8.56v3.73c-7.18.48-12.01,5.45-12.01,13.66v17.94h-3.45v-25.12Z"/>
    <path class="cls-1" d="M710.25,494.14c6.97,19.73,10,27.88,11.18,31.6h.07c1.38-4.21,4.14-12.21,10.83-31.6h3.59l-12.97,36.5c-3.66,10.21-6.14,12.49-12.35,12.49-1.24,0-2.07-.07-3.17-.21v-3.45c1.04.14,2,.21,3.11.21,4.97,0,6.55-2.42,9.11-9.52l-13.18-36.02h3.79Z"/>
    <path class="cls-1" d="M803.4,506.42c0-9.45.07-18.49.28-23.32h-.21c-1.93,6.49-11.73,30.29-17.87,45.54h-3.66c-4.62-11.8-14.77-38.29-16.97-45.61h-.14c.34,5.52.48,16.77.48,25.05v20.56h-3.73v-48.3h5.59c6.62,16.56,14.97,38.23,16.77,43.68h.14c1.1-3.52,10.76-27.6,17.53-43.68h5.52v48.3h-3.73v-22.22Z"/>
    <path class="cls-1" d="M820.03,511.81c.07,8.9,4.55,14.42,11.18,14.42s8.69-3.66,9.94-6.49h3.52c-1.45,4.55-5.11,9.73-13.59,9.73-10.49,0-14.56-9.04-14.56-17.8,0-9.87,4.9-18.35,14.97-18.35,10.63,0,14.01,9.18,14.01,15.66,0,.97,0,1.93-.07,2.83h-25.39ZM841.9,508.77c-.07-6.83-3.79-12.21-10.56-12.21-7.11,0-10.35,4.97-11.11,12.21h21.67Z"/>
    <path class="cls-1" d="M880.88,477.79v40.92c0,3.31,0,6.49.07,9.94h-3.31c-.14-.83-.21-4.07-.21-5.8-1.72,4.21-5.59,6.62-11.59,6.62-8.97,0-14.35-7.31-14.35-17.66s5.86-18.49,15.25-18.49c6.9,0,9.66,2.97,10.69,5.17v-20.7h3.45ZM855.14,511.67c0,9.45,4.9,14.56,10.83,14.56,9.11,0,11.59-6.28,11.59-15.66,0-8.9-2.14-14.01-10.97-14.01-6.83,0-11.45,5.45-11.45,15.11Z"/>
    <path class="cls-1" d="M892.2,477.79h3.45v6.69h-3.45v-6.69ZM892.2,494.14h3.45v34.5h-3.45v-34.5Z"/>
    <path class="cls-1" d="M932.35,518.5c-1.66,6.07-5.66,10.97-13.39,10.97-8.62,0-14.77-6.42-14.77-17.94,0-9.45,5.04-18.22,15.18-18.22,8.76,0,12.35,6.21,12.97,11.04h-3.52c-1.04-4-3.66-7.8-9.52-7.8-7.31,0-11.45,6.21-11.45,14.83s3.86,14.83,11.11,14.83c5.04,0,8.07-2.55,9.87-7.73h3.52Z"/>
    <path class="cls-1" d="M964.3,522.09c0,3.04.28,5.45.48,6.55h-3.31c-.28-.83-.48-2.35-.62-5.31-1.17,2.55-4.21,6.14-11.32,6.14-8,0-11.45-5.17-11.45-10.35,0-7.59,5.86-11.04,16.21-11.04h6.55v-3.52c0-3.45-1.04-8.07-8.9-8.07-6.97,0-8,3.66-8.76,6.49h-3.45c.41-3.79,2.76-9.66,12.28-9.66,7.87,0,12.28,3.31,12.28,10.9v17.87ZM960.92,511.05h-6.76c-7.66,0-12.42,2-12.42,7.93,0,4.35,3.11,7.31,7.94,7.31,9.87,0,11.25-6.56,11.25-14.01v-1.24Z"/>
    <path class="cls-1" d="M975.69,528.64v-50.85h3.45v50.85h-3.45Z"/>
    <path class="cls-1" d="M1019.36,483.79h-16.21v-3.45h36.29v3.45h-16.28v44.85h-3.79v-44.85Z"/>
    <path class="cls-1" d="M1039.24,503.53c0-5.8-.07-8.28-.07-9.38h3.38c.07,1.1.14,3.31.14,7.73,2-5.17,6.42-8.28,12.01-8.56v3.73c-7.18.48-12.01,5.45-12.01,13.66v17.94h-3.45v-25.12Z"/>
    <path class="cls-1" d="M1084.08,522.09c0,3.04.28,5.45.48,6.55h-3.31c-.28-.83-.48-2.35-.62-5.31-1.17,2.55-4.21,6.14-11.32,6.14-8,0-11.45-5.17-11.45-10.35,0-7.59,5.86-11.04,16.21-11.04h6.55v-3.52c0-3.45-1.04-8.07-8.9-8.07-6.97,0-8,3.66-8.76,6.49h-3.45c.41-3.79,2.76-9.66,12.28-9.66,7.87,0,12.28,3.31,12.28,10.9v17.87ZM1080.7,511.05h-6.76c-7.66,0-12.42,2-12.42,7.93,0,4.35,3.11,7.31,7.94,7.31,9.87,0,11.25-6.56,11.25-14.01v-1.24Z"/>
    <path class="cls-1" d="M1093.61,494.14c5.59,15.8,9.45,26.57,10.76,30.98h.07c.76-2.55,4.62-12.83,11.32-30.98h3.66l-13.04,34.5h-4.14l-12.28-34.5h3.66Z"/>
    <path class="cls-1" d="M1126.93,511.81c.07,8.9,4.55,14.42,11.18,14.42s8.69-3.66,9.94-6.49h3.52c-1.45,4.55-5.11,9.73-13.59,9.73-10.49,0-14.56-9.04-14.56-17.8,0-9.87,4.9-18.35,14.97-18.35,10.63,0,14.01,9.18,14.01,15.66,0,.97,0,1.93-.07,2.83h-25.39ZM1148.81,508.77c-.07-6.83-3.79-12.21-10.56-12.21-7.11,0-10.35,4.97-11.11,12.21h21.67Z"/>
    <path class="cls-1" d="M1161.09,528.64v-50.85h3.45v50.85h-3.45Z"/>
  </g>
  <path class="cls-2" d="M436.22,270.72s87.31,69.5,287.22,95.09,9.57-3.63,9.57-3.63l-99.57-16.24-96.22-26.92-106.76-57.83"/>
  <polyline class="cls-2" points="716.55 365.81 96.51 365.81 137.11 363.81 718.09 363.81"/>
  <polyline class="cls-2" points="1129.89 403.89 1163.23 403.89 1160.22 412.87"/>
  <polyline class="cls-2" points="1010.75 183.74 1050.13 183.74 1045.3 194.17"/>
  <polyline class="cls-2" points="710.94 331.5 757.79 331.5 753.46 318.75"/>
</svg>